<svg xmlns="http://www.w3.org/2000/svg" x="0px" y="0px"
width="30" height="30"
viewBox="0 0 64 64"
style=" fill:#000000;"><path fill="#72caaf" d="M31 7A24 24 0 1 0 31 55A24 24 0 1 0 31 7Z"></path><path fill="#66bfa1" d="M31,55A24,24,0,0,0,55,31H7A24,24,0,0,0,31,55Z"></path><path fill="#c5e4fa" d="M31 13A18 18 0 1 0 31 49A18 18 0 1 0 31 13Z"></path><path fill="#cce7fc" d="M19.87 45.13A17.91 17.91 0 0 0 31 49L49 31a17.91 17.91 0 0 0-3.87-11.13zM17.8 43.2L43.2 17.8a18 18 0 0 0-3.47-2.53L15.27 39.73A18 18 0 0 0 17.8 43.2zM14 37L37 14a17.85 17.85 0 0 0-4.07-.93L13.1 32.9A17.85 17.85 0 0 0 14 37z"></path><path fill="#8d6c9f" d="M26.82 12.46A19.08 19.08 0 0 0 12.5 26.67a1 1 0 0 0 .75 1.2l.23 0a1 1 0 0 0 1-.77A17.07 17.07 0 0 1 27.26 14.41a1 1 0 0 0-.44-2zM34.74 47.59a1 1 0 0 0 .22 2l.22 0A19 19 0 0 0 49.61 34.83a1 1 0 0 0-2-.4A17 17 0 0 1 34.74 47.59zM47.56 27.13a1 1 0 0 0 1 .77l.23 0a1 1 0 0 0 .75-1.2 19 19 0 0 0-7.56-11.2 1 1 0 0 0-1.15 1.63A17 17 0 0 1 47.56 27.13zM34.74 14.41a16.88 16.88 0 0 1 2.46.75 1 1 0 0 0 .73-1.86 18.91 18.91 0 0 0-2.75-.84 1 1 0 1 0-.44 2zM25.38 44.91a1 1 0 0 0-1.3.55l-.75 1.85a1 1 0 1 0 1.85.75l.75-1.85A1 1 0 0 0 25.38 44.91zM19.17 41.81l-1.39 1.44a1 1 0 0 0 1.44 1.39l1.39-1.44a1 1 0 0 0-1.44-1.39zM16 36.59l-1.83.81A1 1 0 1 0 15 39.23l1.83-.81A1 1 0 0 0 16 36.59z"></path><path fill="#8d6c9f" d="M61,30H56A25,25,0,0,0,32,6V1a1,1,0,0,0-2,0V6A25,25,0,0,0,6,30H1a1,1,0,0,0,0,2H6A25,25,0,0,0,30,56v5a1,1,0,0,0,2,0V56A25,25,0,0,0,56,32h5a1,1,0,0,0,0-2ZM32,54V46a1,1,0,0,0-2,0v8A23,23,0,0,1,8,32h8a1,1,0,0,0,0-2H8A23,23,0,0,1,30,8v8a1,1,0,0,0,2,0V8A23,23,0,0,1,54,30H46a1,1,0,0,0,0,2h8A23,23,0,0,1,32,54Z"></path><path fill="#ed7899" d="M31 29A2 2 0 1 0 31 33A2 2 0 1 0 31 29Z"></path></svg>