<svg xmlns="http://www.w3.org/2000/svg" x="0px" y="0px"
width="25" height="25"
viewBox="0 0 512 512"
style=" fill:#000000;"><path fill="#FEBF10" d="M463.1,230.1c-6.4-6.2-12.2-12.7-17.7-19.7c-12.2-15.4-23.1-31.8-34.3-47.9c-11.4-16.4-23.5-32.2-36.8-47.1c-6.6-7.5-13.4-14.8-20.1-22.2c1.5,3.9,3.2,7.8,4.9,11.7c5.8,13.4,10.3,27.3,15.1,41.1c4.8,13.6,10.7,26.8,15.5,40.4c4.4,12.6,11.1,25,13.7,38.1c0.5,2.7-0.8,4.5-2.7,5.3c-0.6,1.1-1.6,2-3.1,2.5c-8,2.7-17.8,1.1-26.1,0.7c-5-0.2-10-0.5-15-0.4c-1.9,0-3.8,0.1-5.6,0.4c-0.1,0-0.1,0-0.2,0c-2.3,4.7-1.8,10.6-2.8,15.6c-1.7,8.3-3.9,16.4-6.5,24.4c-5.1,15.9-10.6,33.1-10.9,49.9c-0.1,7.2-11.3,8.1-11.2,0.9c0-0.1,0-0.2,0-0.3c0,0-0.1-0.1-0.1-0.1c-4.9-6.1-8-13.8-10.9-21c-3.3-8.3-7.1-16.3-10.7-24.5c-8.1-18.1-15.6-36.5-23-54.9c-3.8-9.6-8.1-18.9-12.1-28.4c-3.8-9-6.9-18.3-10.6-27.3c-3.5-8.4-5.7-17.7-10.1-25.7c-1.4-2.5-2.8-4.9-4.2-7.4c-0.2,0.9-0.4,1.7-0.6,2.6c-2.3,9.7-5.4,19-7.1,28.8c-3.2,19.1-4.6,38.3-8.1,57.4c-3.5,19.3-7.9,38.4-13.6,57.1c-3,9.8-6.9,19.4-9.6,29.3c-2.4,9-4.8,18-8.2,26.8c-1.1,2.7-3.3,3.5-5.5,3.1c-1.2,0.4-2.6,0.3-4.2-0.6c-11.6-6.9-11.7-23.8-16.1-35c-8.2-20.6-16.9-41-24.5-61.8c-7.5-20.7-13.6-41.8-21.1-62.5c-3.7-10.2-6.6-20.6-11.1-30.4c-2.5-5.4-5.1-10.7-7.5-16.1c-5.1,13.5-8,27.9-10.4,42c-3.1,18.2-5.4,36.6-8.1,54.9c-3.1,20.4-6.3,40.9-11.3,61c-2.2,8.8-4.6,17.3-7.9,25.7c-1.7,4.3-3.6,8.9-4.9,13.5c1.2-1.2,2.3-2.4,3.4-3.7c5.4-6.6,11-12.9,16-19.8c9.1-12.7,14.7-27.3,23.7-40c1.2-1.6,3.9-2.4,5.9-1.7c2.8-0.2,5.8,1.4,6,5c0.4,6.1,5.5,10.2,7.5,15.7c2.2,5.9,4.5,11.8,7.1,17.6c5.9,12.9,13.8,25,21.2,37c12,19.6,23.5,39.3,31.7,60.7c0.6-0.9,1.2-1.9,1.8-2.9c3.8-7,7.3-14.1,10.7-21.4c6.1-13.1,12-26.2,17-39.7c9.9-26.5,20.2-52.5,33.8-77.3c1.3-2.3,3.4-3.1,5.4-2.9c2.9-0.3,5.9,1.3,6.3,5c0.4,5,6.9,9.7,9.7,13.7c3.4,4.8,6.1,9.9,8.8,15.1c5.7,11.3,11.7,22.4,17.7,33.5c6.7,12.2,15.1,23.6,22.4,35.4c4.3,7.1,7.7,15.4,13.1,22c2.3-12.2,9.1-23.1,13.6-34.7c3-7.9,4.5-16.5,6.4-24.7c1.7-7.5,3.5-15.2,4.4-22.8c1.3-10.5,0.1-25,9.5-32.3c9.8-7.6,25.7-4.2,37.2-4.2c2.2,0,3.8,1.1,4.8,2.5c1.8,0.6,3.2,2.2,3.3,4.7c0.5,12.8-2.3,25.2-5.4,37.5c-3.3,12.9-5.8,25.9-8.2,39c-2.5,13.7-4.9,27.5-8.7,40.9c11.8-16,21.4-33,31.2-50.3c10.7-18.9,21.3-37.8,32.6-56.3c5.6-9.1,11.9-17.4,19.2-25.2c1.9-2,3.9-4,5.8-6c0.7-0.7,1.4-1.5,2.1-2.2c0.2-0.9,0.7-1.8,1.5-2.5C472.6,239.3,467.8,234.7,463.1,230.1z"></path><path d="M489.5,243.3c-8.7-14.4-23-24.7-33.6-37.7c-12.8-15.7-23.9-32.7-35.5-49.4c-10.9-15.7-22.4-30.8-35-45.1c-13-14.8-26.6-29.1-39.4-44.2c-0.4-0.4-0.7-0.8-1.1-1.1c-3.6-4.8-12.5-1.2-9.9,5c5,11.7,7.4,24.3,12.6,36c6,13.3,10.5,27.3,15.2,41.1c4.5,13.1,10.2,25.6,14.9,38.6c2.3,6.5,4.5,13,7,19.3c2.1,5.1,4.8,10.4,6.4,15.8c-0.4,0.1-0.7,0.3-1,0.5c-2.4,0.1-5.1,0-7.3,0c-5.6-0.1-11.2-0.5-16.8-0.7c-6.9-0.3-20.6-2.5-24.6,5c-3.3,5.1-3.5,11.8-4.2,17.6c-1.1,8.4-3.8,16.8-6.3,24.9c-3.6,11.6-7.3,23.4-9.5,35.4c-1-2.4-2-4.8-2.9-7.2c-3.4-8.4-7.3-16.6-11-24.9c-8.1-18.1-15.5-36.5-22.9-54.9c-7.2-18-15.5-35.6-22-53.9c-3-8.6-6-17.5-10-25.6c-3.5-7.2-8.5-13.6-10.5-21.5c-0.2-0.7-0.4-1.2-0.7-1.7c0-0.7-0.1-1.4-0.4-2.1c-1.8-4.3-8.2-5.3-10.4-0.6c-0.8,1.8-1,3.9-1.2,5.8c-0.5,3.9-1.3,7.6-2.1,11.4c-2.1,9.7-5.3,19.1-7.3,28.8c-3.9,18.9-4.9,38.2-8.1,57.2c-3.3,19.3-7.6,38.4-13,57.3c-2.9,9.9-6.7,19.5-9.6,29.3c-2.2,7.5-4,15.2-6.4,22.6c-1.6-3.4-2.7-7.9-3.5-10.3c-2.1-6.5-3.5-13.1-6.1-19.5c-8-20-16.3-39.8-23.6-60.1c-7.2-20.1-13.2-40.6-20.4-60.7c-3.4-9.6-6.2-19.3-10.4-28.6c-4.1-9.2-8.8-18.1-12.1-27.7c-1.7-4.9-7.7-4.4-10-1.2c-1,0.5-1.8,1.3-2.4,2.6c-15.4,32.9-17.6,71.3-22.9,106.7c-3.1,21.1-6.5,42.2-11.5,62.9c-2.3,9.5-5.3,18.4-8.8,27.5c-2.1,5.3-4,10.8-5,16.4c-1.3,0.9-2,2.5-1.6,4.7c0.3,1.4,0.9,2.7,1,4.1c0.1,1.1,0.5,2,1,2.7c-1.3,5.6,7.5,9.3,10.7,3.5c3.3-5.9,9.5-9.8,13.7-15c5-6.2,10.4-12.1,15.1-18.6c7.5-10.4,12.6-22,19.1-32.9c0.7,1.2,1.4,2.5,2.3,3.7c3.8,5.6,5.6,12.4,8.2,18.6c5.6,13.3,13.4,25.6,20.8,37.9c14,23.1,27.8,45.6,36.5,71.4c0.2,0.5,0.4,0.9,0.6,1.3c-0.5,6.1,9.5,7.6,11.3,1c1.3-4.9,6.2-9.2,8.7-13.7c3.5-6.4,6.6-13,9.7-19.6c6.1-13.1,11.9-26.2,17-39.7c8.8-23.3,17.7-46.3,29.1-68.4c0.8,1,1.6,1.9,2.4,2.8c4.3,4.9,7.7,10.3,10.8,16.1c6.4,12.1,12.5,24.3,19,36.2c6.9,12.8,15.5,24.8,23.3,37.1c6,9.4,10,20.1,18.4,27.7c2.4,2.2,5.2,1.7,7.1,0.1c3.2,0.6,7.3-1.5,7.4-5.8c0.3-12.8,8.6-24.6,13.3-36.1c5.5-13.7,8-29.4,10.6-43.9c1.8-9.7,0.4-21.7,5.2-30.6c2.2-4.2,10.2-3.7,14.1-3.7c4.8-0.1,9.6,0.2,14.3,0.4c-0.1,11.3-2.9,22.3-5.7,33.2c-3.1,12.3-5.5,24.7-7.8,37.3c-2.4,13.5-5,27.1-8.5,40.4c-2.8,10.4-7.1,20.1-10.8,30.1c-0.1,0.1-0.2,0.2-0.3,0.3c-0.7,0.6-1.2,1.3-1.5,2.2c-2.6,4.1-3.6,8.8,1.7,12c3.7,2.2,7-0.5,7.7-3.8c0.6-0.6,1.1-1.4,1.3-2.3c0.3-0.8,0.5-1.6,0.8-2.4c0.7-0.8,1.5-1.6,2.3-2.4c3.2-3.3,5.8-7.5,8.6-11.2c6.1-8,12.4-15.9,18.1-24.2c11.6-16.8,21-35.1,31-52.8c4.9-8.6,9.7-17.1,14.7-25.7c5.3-9.1,10.3-18.7,16.5-27.1c5.1-6.9,11-13.2,17-19.3c1.6-1.6,3.8-3.5,5.2-5.7C489.1,251.2,491.9,247.2,489.5,243.3z M475.1,247.1c-0.7,0.8-1.4,1.5-2.1,2.2c-1.9,2-3.9,4-5.8,6c-7.4,7.7-13.7,16.1-19.2,25.2c-11.3,18.5-21.9,37.5-32.6,56.3c-9.8,17.3-19.5,34.3-31.2,50.3c3.7-13.4,6.2-27.2,8.7-40.9c2.4-13.1,4.9-26.1,8.2-39c3.1-12.3,5.9-24.8,5.4-37.5c-0.1-2.5-1.5-4.1-3.3-4.7c-1-1.5-2.6-2.5-4.8-2.5c-11.4-0.1-27.4-3.5-37.2,4.2c-9.4,7.3-8.2,21.8-9.5,32.3c-0.9,7.6-2.8,15.3-4.4,22.8c-1.8,8.2-3.3,16.8-6.4,24.7c-4.5,11.7-11.3,22.5-13.6,34.7c-5.4-6.5-8.7-14.8-13.1-22c-7.3-11.9-15.7-23.2-22.4-35.4c-6-11.1-12-22.2-17.7-33.5c-2.6-5.2-5.4-10.3-8.8-15.1c-2.8-3.9-9.2-8.7-9.7-13.7c-0.3-3.7-3.4-5.3-6.3-5c-2-0.2-4.2,0.6-5.4,2.9c-13.6,24.8-23.9,50.8-33.8,77.3c-5,13.5-10.9,26.7-17,39.7c-3.4,7.2-6.9,14.4-10.7,21.4c-0.5,1-1.1,2-1.8,2.9c-8.2-21.4-19.7-41.1-31.7-60.7c-7.4-12-15.3-24.1-21.2-37c-2.6-5.7-4.9-11.7-7.1-17.6c-2.1-5.5-7.2-9.6-7.5-15.7c-0.2-3.6-3.2-5.2-6-5c-2-0.7-4.8,0.1-5.9,1.7c-9,12.7-14.6,27.3-23.7,40c-5,7-10.7,13.2-16,19.8c-1.1,1.3-2.2,2.6-3.4,3.7c1.3-4.6,3.2-9.1,4.9-13.5c3.3-8.4,5.8-17,7.9-25.7c5-20.1,8.2-40.6,11.3-61c2.7-18.3,5-36.6,8.1-54.9c2.4-14.1,5.3-28.5,10.4-42c2.4,5.4,5,10.7,7.5,16.1c4.5,9.8,7.4,20.2,11.1,30.4c7.4,20.7,13.6,41.9,21.1,62.5c7.6,20.8,16.2,41.2,24.5,61.8c4.5,11.2,4.5,28.1,16.1,35c1.5,0.9,2.9,1,4.2,0.6c2.2,0.4,4.4-0.4,5.5-3.1c3.4-8.7,5.7-17.7,8.2-26.8c2.7-9.9,6.5-19.5,9.6-29.3c5.8-18.7,10.1-37.8,13.6-57.1c3.5-19,4.9-38.3,8.1-57.4c1.7-9.8,4.7-19.2,7.1-28.8c0.2-0.9,0.4-1.7,0.6-2.6c1.4,2.5,2.8,4.9,4.2,7.4c4.4,8,6.6,17.3,10.1,25.7c3.8,9,6.9,18.3,10.6,27.3c4,9.5,8.3,18.9,12.1,28.4c7.4,18.4,14.8,36.8,23,54.9c3.7,8.2,7.4,16.2,10.7,24.5c2.9,7.2,6,14.8,10.9,21c0,0,0.1,0.1,0.1,0.1c0,0.1,0,0.2,0,0.3c-0.1,7.3,11.1,6.4,11.2-0.9c0.2-16.9,5.8-34,10.9-49.9c2.6-8,4.8-16.2,6.5-24.4c1-5,0.6-10.9,2.8-15.6c0.1,0,0.1,0,0.2,0c1.8-0.3,3.7-0.3,5.6-0.4c5-0.1,10,0.2,15,0.4c8.2,0.4,18,2,26.1-0.7c1.5-0.5,2.5-1.4,3.1-2.5c1.9-0.8,3.2-2.6,2.7-5.3c-2.6-13.1-9.4-25.5-13.7-38.1c-4.7-13.6-10.7-26.7-15.5-40.4c-4.8-13.8-9.3-27.7-15.1-41.1c-1.7-3.9-3.4-7.8-4.9-11.7c6.7,7.4,13.4,14.8,20.1,22.2c13.3,14.9,25.4,30.7,36.8,47.1c11.2,16.1,22,32.5,34.3,47.9c5.5,6.9,11.4,13.5,17.7,19.7c4.8,4.6,9.6,9.2,13.6,14.4C475.8,245.3,475.3,246.2,475.1,247.1z"></path></svg>