<svg xmlns="http://www.w3.org/2000/svg" x="0px" y="0px"
width="20" height="20"
viewBox="0 0 512 512"
style=" fill:#000000;"><path fill="#D6E5E5" d="M211.5,222.1c-10.8-1.2-22.2-3.3-32.2-8c-2.2,2-3.2,5.4-3.5,8.7c18.1,3.1,35.7,8.4,53.6,12.4c2.3-4.3,4.6-8.6,6.7-12.9C228,223.3,219.5,222.9,211.5,222.1z"></path><path fill="#127274" d="M461.7,255.1c-7.9-22.1-20.4-42.7-37.2-59.2c-18-17.7-39.3-29.2-62.5-38.5c-3.9-1.5-3.8-5.6-1.7-8.1c6.4-28.5,14.5-60.3-1.2-87.3c-9.7-16.6-25-28.5-42.9-35.2c-33.8-12.8-76.6-8.9-106,12.9c-19.7,14.6-32.2,36-35.3,60.4c-1.2,9.8-1.3,19.9-1,29.7c0.1,5.1,0.3,10.3,1.4,15.4c0.5,2.5,1.4,6.9,3.7,8.4c3.1,2.1,3.2,5.8,1.7,8.3c0.2,2.2-0.8,4.6-3.3,5.8c-16.9,7.9-30.9,20.7-41.6,35.9c-13.2,18.7-21.7,40.5-27.5,62.5c-5.8,22-10.2,45.1-8.7,68c1.4,21.5,7.6,42.6,19.3,60.7c11.9,18.4,28.5,33.5,47.5,44.4c47.5,27,105.3,32.9,158.6,24c25.7-4.3,52.4-11.5,75-24.8c19.9-11.7,37.2-27.9,49.3-47.7C474.2,350,477.7,299.7,461.7,255.1z M250.3,216.9c-3.3,9.5-8.5,18.1-13,27c-1.1,2.2-3.6,3.5-6,3c-20.7-4.4-41-10.9-62-14c-2.5-0.4-4.2-2.6-4.4-5c-1-8.3,2-17.5,8.4-23c0.2-0.2,0.5-0.4,0.7-0.5c1.3-2.2,3.9-3.4,6.8-1.8c9.5,5.2,20.7,7.4,31.4,8.6c10.2,1.1,21.5,1.7,31.3-1.8C248.6,207.5,251.8,212.6,250.3,216.9z M328.5,149.1c-1.6,1.8-3.7,2.2-5.5,1.6c-1.1,1.1-2.7,1.6-4.7,1.2c-6.4-1.5-12.2-4.4-18.7-5.3c-6.7-0.9-13.4-0.9-20.1-0.8c-7.1,0.2-13.8,0.3-20.8,1.3c-7.4,1-14.9,2.2-22.3,3.8c-3.3,0.7-6.7,1.5-10,2.5c-0.9,0.3-1.8,0.6-2.6,0.9c-2,3.1-6.7,4.3-9,0.3c-0.3-0.5-0.5-0.9-0.6-1.3c-1.2-0.5-2.3-1.4-3-2.9c-1.3-2.9-2.1-6.1-2.4-9.2c-2.1-22.6,4.9-48.8,22-64.5c15.2-14,34.7-21.5,55.4-20.3c19,1.1,38.6,9.5,49.3,26C349.4,103.6,345.1,130.4,328.5,149.1z"></path><path d="M458.3,221.9c-9.6-16.6-22.3-31.5-37-43.7c-14.9-12.5-32-21.3-49.8-28.8c6.3-28,13-57.8,0.9-85.2C364.7,46.8,351.3,33,335,23.5c-32.5-18.9-75.7-19.3-109.9-4.9c-28.6,12-50.1,36-58.4,65.9c-3.9,14.2-4,29-3.9,43.6c0,9.9,0.2,22.9,6.7,31.1c-40.3,21-61.4,63.4-72.6,106c-5.8,22.2-9.7,45.2-8.6,68.2c1.1,21.8,7.2,43,18,62c23.7,42,69.3,65.9,114.9,76.2c53.5,12.1,111.7,6.5,162.5-13.4c44.1-17.3,77.4-54,91.7-98.9C489.8,314,481.9,262.8,458.3,221.9z M449.2,390.6c-12.1,19.7-29.5,35.9-49.3,47.7c-22.6,13.3-49.3,20.5-75,24.8c-53.3,8.9-111.1,3.1-158.6-24c-19.1-10.9-35.6-25.9-47.5-44.4c-11.7-18.2-17.9-39.3-19.3-60.7c-1.5-22.9,2.9-45.9,8.7-68c5.8-22,14.3-43.8,27.5-62.5c10.7-15.2,24.7-27.9,41.6-35.9c2.5-1.2,3.5-3.6,3.3-5.8c1.5-2.5,1.4-6.3-1.7-8.3c-2.3-1.5-3.2-6-3.7-8.4c-1-5-1.3-10.2-1.4-15.4c-0.2-9.8-0.2-20,1-29.7c3.1-24.3,15.6-45.8,35.3-60.4c29.4-21.8,72.2-25.6,106-12.9C334,33.5,349.3,45.4,359,62c15.8,27,7.6,58.8,1.2,87.3c-2.1,2.5-2.2,6.6,1.7,8.1c23.2,9.3,44.6,20.9,62.5,38.5c16.8,16.5,29.2,37.1,37.2,59.2C477.7,299.7,474.2,350,449.2,390.6z"></path><path d="M335.5 82.2c-10.7-16.4-30.2-24.9-49.3-26-20.7-1.2-40.2 6.3-55.4 20.3-17 15.7-24.1 41.9-22 64.5.3 3.2 1.1 6.3 2.4 9.2.7 1.5 1.8 2.4 3 2.9.2.4.4.9.6 1.3 2.3 4 7 2.8 9-.3.9-.4 1.7-.6 2.6-.9 3.3-1 6.6-1.8 10-2.5 7.4-1.6 14.8-2.8 22.3-3.8 7-1 13.8-1.1 20.8-1.3 6.7-.1 13.4-.1 20.1.8 6.5.9 12.4 3.8 18.7 5.3 2 .5 3.6-.1 4.7-1.2 1.8.6 3.9.3 5.5-1.6C345.1 130.4 349.4 103.6 335.5 82.2zM320.8 141.2c-.1 0-.2-.1-.4-.1-7-1.6-13.4-4.5-20.5-5.5-8.2-1.1-16.6-.8-24.9-.6-7.8.2-15.1.8-22.8 2-8.9 1.4-17.8 3-26.6 5.2-1.5.4-3.4.9-5.2 1.7-2.5-8.3-.7-18 .7-26.3 1.7-10.1 5.7-19.7 12.1-27.7 11.3-14.2 28.8-22 46.8-22.7 15.9-.6 33.1 5.1 43.5 17.6C337.8 101.7 334.7 125.1 320.8 141.2zM243.6 209.3c-9.8 3.5-21.1 2.9-31.3 1.8-10.7-1.2-21.9-3.4-31.4-8.6-2.9-1.6-5.5-.3-6.8 1.8-.2.2-.5.3-.7.5-6.4 5.5-9.4 14.7-8.4 23 .3 2.4 2 4.6 4.4 5 21 3.1 41.3 9.6 62 14 2.4.5 4.9-.8 6-3 4.5-8.9 9.7-17.5 13-27C251.8 212.6 248.6 207.5 243.6 209.3zM229.4 235.2c-17.9-4-35.5-9.3-53.6-12.4.3-3.3 1.4-6.7 3.5-8.7 10 4.7 21.3 6.8 32.2 8 8 .9 16.5 1.3 24.6.2C234 226.6 231.7 230.9 229.4 235.2z"></path></svg>